HIERARCHY
ROOT mixamorig:Hips
{
	OFFSET 0.000000 201.639420 0.000000
	CHANNELS 6 Xposition Yposition Zposition Xrotation Yrotation Zrotation
	JOINT mixamorig:Spine
	{
		OFFSET 0.006200 19.524994 -2.481800
		CHANNELS 3 Xrotation Yrotation Zrotation
		JOINT mixamorig:Spine1
		{
			OFFSET -0.000900 22.835007 -2.825400
			CHANNELS 3 Xrotation Yrotation Zrotation
			JOINT mixamorig:Spine2
			{
				OFFSET -0.020600 26.552490 -3.193300
				CHANNELS 3 Xrotation Yrotation Zrotation
				JOINT mixamorig:Neck
				{
					OFFSET -0.060000 30.701813 1.352200
					CHANNELS 3 Xrotation Yrotation Zrotation
					JOINT mixamorig:Head
					{
						OFFSET -0.087200 22.547607 3.670900
						CHANNELS 3 Xrotation Yrotation Zrotation
						JOINT mixamorig:HeadTop_End
						{
							OFFSET -0.830600 40.355194 7.893500
							CHANNELS 3 Xrotation Yrotation Zrotation
							End Site
							{
								OFFSET 0.000000 30.592346 0.000000
							}
						}
						JOINT mixamorig:RightEye
						{
							OFFSET -6.302100 18.118591 16.197100
							CHANNELS 3 Xrotation Yrotation Zrotation
							End Site
							{
								OFFSET 0.000000 30.592346 0.000000
							}
						}
						JOINT mixamorig:LeftEye
						{
							OFFSET 6.741500 18.382690 16.401899
							CHANNELS 3 Xrotation Yrotation Zrotation
							End Site
							{
								OFFSET 0.000000 30.592346 0.000000
							}
						}
					}
				}
				JOINT mixamorig:LeftShoulder
				{
					OFFSET 11.924900 18.230499 1.425400
					CHANNELS 3 Xrotation Yrotation Zrotation
					JOINT mixamorig:LeftArm
					{
						OFFSET 25.435989 -0.697632 -5.229300
						CHANNELS 3 Xrotation Yrotation Zrotation
						JOINT mixamorig:LeftForeArm
						{
							OFFSET 54.684776 0.000000 0.000000
							CHANNELS 3 Xrotation Yrotation Zrotation
							JOINT mixamorig:LeftHand
							{
								OFFSET 55.098175 0.000000 0.000000
								CHANNELS 3 Xrotation Yrotation Zrotation
								JOINT mixamorig:LeftHandMiddle1
								{
									OFFSET 23.369751 0.000000 0.000000
									CHANNELS 3 Xrotation Yrotation Zrotation
									JOINT mixamorig:LeftHandMiddle2
									{
										OFFSET 6.378677 0.000000 0.000000
										CHANNELS 3 Xrotation Yrotation Zrotation
										JOINT mixamorig:LeftHandMiddle3
										{
											OFFSET 6.148331 0.000000 0.000000
											CHANNELS 3 Xrotation Yrotation Zrotation
											JOINT mixamorig:LeftHandMiddle4
											{
												OFFSET 6.582504 0.000000 0.000000
												CHANNELS 3 Xrotation Yrotation Zrotation
												End Site
												{
													OFFSET -1.168900 6.395691 1.028606
												}
											}
										}
									}
								}
								JOINT mixamorig:LeftHandThumb1
								{
									OFFSET 7.235672 -3.848206 5.434273
									CHANNELS 3 Xrotation Yrotation Zrotation
									JOINT mixamorig:LeftHandThumb2
									{
										OFFSET 6.568451 -3.792297 3.792300
										CHANNELS 3 Xrotation Yrotation Zrotation
										JOINT mixamorig:LeftHandThumb3
										{
											OFFSET 6.063080 -3.500519 3.500518
											CHANNELS 3 Xrotation Yrotation Zrotation
											JOINT mixamorig:LeftHandThumb4
											{
												OFFSET 4.793182 -2.767334 2.767349
												CHANNELS 3 Xrotation Yrotation Zrotation
												End Site
												{
													OFFSET 0.101639 6.054260 1.275483
												}
											}
										}
									}
								}
								JOINT mixamorig:LeftHandIndex1
								{
									OFFSET 23.101074 -0.309540 4.992809
									CHANNELS 3 Xrotation Yrotation Zrotation
									JOINT mixamorig:LeftHandIndex2
									{
										OFFSET 6.226883 0.000000 0.000000
										CHANNELS 3 Xrotation Yrotation Zrotation
										JOINT mixamorig:LeftHandIndex3
										{
											OFFSET 6.094330 0.000000 0.000000
											CHANNELS 3 Xrotation Yrotation Zrotation
											JOINT mixamorig:LeftHandIndex4
											{
												OFFSET 5.482605 0.000000 0.000000
												CHANNELS 3 Xrotation Yrotation Zrotation
												End Site
												{
													OFFSET -1.427902 5.233032 0.797164
												}
											}
										}
									}
								}
								JOINT mixamorig:LeftHandRing1
								{
									OFFSET 22.299240 0.021149 -3.964172
									CHANNELS 3 Xrotation Yrotation Zrotation
									JOINT mixamorig:LeftHandRing2
									{
										OFFSET 6.321869 0.000000 0.000000
										CHANNELS 3 Xrotation Yrotation Zrotation
										JOINT mixamorig:LeftHandRing3
										{
											OFFSET 5.899796 0.000000 0.000000
											CHANNELS 3 Xrotation Yrotation Zrotation
											JOINT mixamorig:LeftHandRing4
											{
												OFFSET 6.517899 0.000000 0.000000
												CHANNELS 3 Xrotation Yrotation Zrotation
												End Site
												{
													OFFSET -1.637299 6.232208 0.980890
												}
											}
										}
									}
								}
								JOINT mixamorig:LeftHandPinky1
								{
									OFFSET 20.463791 -0.302338 -8.562233
									CHANNELS 3 Xrotation Yrotation Zrotation
									JOINT mixamorig:LeftHandPinky2
									{
										OFFSET 6.908646 0.000000 0.000000
										CHANNELS 3 Xrotation Yrotation Zrotation
										JOINT mixamorig:LeftHandPinky3
										{
											OFFSET 4.622849 0.000000 0.000000
											CHANNELS 3 Xrotation Yrotation Zrotation
											JOINT mixamorig:LeftHandPinky4
											{
												OFFSET 5.216080 0.000000 0.000000
												CHANNELS 3 Xrotation Yrotation Zrotation
												End Site
												{
													OFFSET -0.606308 5.116241 0.814926
												}
											}
										}
									}
								}
							}
						}
					}
				}
				JOINT mixamorig:RightShoulder
				{
					OFFSET -12.001300 18.284088 1.348900
					CHANNELS 3 Xrotation Yrotation Zrotation
					JOINT mixamorig:RightArm
					{
						OFFSET -25.308500 -0.751312 -5.164599
						CHANNELS 3 Xrotation Yrotation Zrotation
						JOINT mixamorig:RightForeArm
						{
							OFFSET -54.684429 0.000000 0.000000
							CHANNELS 3 Xrotation Yrotation Zrotation
							JOINT mixamorig:RightHand
							{
								OFFSET -55.150291 0.000000 0.000000
								CHANNELS 3 Xrotation Yrotation Zrotation
								JOINT mixamorig:RightHandMiddle1
								{
									OFFSET -23.317566 0.000000 0.000000
									CHANNELS 3 Xrotation Yrotation Zrotation
									JOINT mixamorig:RightHandMiddle2
									{
										OFFSET -6.378403 0.000000 0.000000
										CHANNELS 3 Xrotation Yrotation Zrotation
										JOINT mixamorig:RightHandMiddle3
										{
											OFFSET -6.148193 0.000000 0.000000
											CHANNELS 3 Xrotation Yrotation Zrotation
											JOINT mixamorig:RightHandMiddle4
											{
												OFFSET -6.583389 0.000000 0.000000
												CHANNELS 3 Xrotation Yrotation Zrotation
												End Site
												{
													OFFSET 1.171692 6.395905 1.029786
												}
											}
										}
									}
								}
								JOINT mixamorig:RightHandThumb1
								{
									OFFSET -7.190521 -3.860474 5.435846
									CHANNELS 3 Xrotation Yrotation Zrotation
									JOINT mixamorig:RightHandThumb2
									{
										OFFSET -6.567429 -3.791718 3.791708
										CHANNELS 3 Xrotation Yrotation Zrotation
										JOINT mixamorig:RightHandThumb3
										{
											OFFSET -6.062469 -3.500153 3.500166
											CHANNELS 3 Xrotation Yrotation Zrotation
											JOINT mixamorig:RightHandThumb4
											{
												OFFSET -4.792618 -2.767029 2.767022
												CHANNELS 3 Xrotation Yrotation Zrotation
												End Site
												{
													OFFSET -0.100327 6.053253 1.276754
												}
											}
										}
									}
								}
								JOINT mixamorig:RightHandIndex1
								{
									OFFSET -23.048981 -0.310791 4.992554
									CHANNELS 3 Xrotation Yrotation Zrotation
									JOINT mixamorig:RightHandIndex2
									{
										OFFSET -6.227539 0.000000 0.000000
										CHANNELS 3 Xrotation Yrotation Zrotation
										JOINT mixamorig:RightHandIndex3
										{
											OFFSET -6.095047 0.000000 0.000000
											CHANNELS 3 Xrotation Yrotation Zrotation
											JOINT mixamorig:RightHandIndex4
											{
												OFFSET -5.484772 0.000000 0.000000
												CHANNELS 3 Xrotation Yrotation Zrotation
												End Site
												{
													OFFSET 1.420593 5.237305 0.797056
												}
											}
										}
									}
								}
								JOINT mixamorig:RightHandRing1
								{
									OFFSET -22.246323 0.020569 -3.963762
									CHANNELS 3 Xrotation Yrotation Zrotation
									JOINT mixamorig:RightHandRing2
									{
										OFFSET -6.322128 0.000000 0.000000
										CHANNELS 3 Xrotation Yrotation Zrotation
										JOINT mixamorig:RightHandRing3
										{
											OFFSET -5.900024 0.000000 0.000000
											CHANNELS 3 Xrotation Yrotation Zrotation
											JOINT mixamorig:RightHandRing4
											{
												OFFSET -6.518356 0.000000 0.000000
												CHANNELS 3 Xrotation Yrotation Zrotation
												End Site
												{
													OFFSET 1.636398 6.232697 0.982186
												}
											}
										}
									}
								}
								JOINT mixamorig:RightHandPinky1
								{
									OFFSET -20.411011 -0.303314 -8.561701
									CHANNELS 3 Xrotation Yrotation Zrotation
									JOINT mixamorig:RightHandPinky2
									{
										OFFSET -6.907349 0.000000 0.000000
										CHANNELS 3 Xrotation Yrotation Zrotation
										JOINT mixamorig:RightHandPinky3
										{
											OFFSET -4.623840 0.000000 0.000000
											CHANNELS 3 Xrotation Yrotation Zrotation
											JOINT mixamorig:RightHandPinky4
											{
												OFFSET -5.218353 0.000000 0.000000
												CHANNELS 3 Xrotation Yrotation Zrotation
												End Site
												{
													OFFSET 0.602097 5.118835 0.816273
												}
											}
										}
									}
								}
							}
						}
					}
				}
			}
		}
	}
	JOINT mixamorig:LeftUpLeg
	{
		OFFSET 18.168400 -13.561905 -0.039000
		CHANNELS 3 Xrotation Yrotation Zrotation
		JOINT mixamorig:LeftLeg
		{
			OFFSET 0.577358 -80.825211 -3.695000
			CHANNELS 3 Xrotation Yrotation Zrotation
			JOINT mixamorig:LeftFoot
			{
				OFFSET -0.577356 -83.370262 -6.520700
				CHANNELS 3 Xrotation Yrotation Zrotation
				JOINT mixamorig:LeftToeBase
				{
					OFFSET 0.750401 -20.798306 25.135401
					CHANNELS 3 Xrotation Yrotation Zrotation
					JOINT mixamorig:LeftToe_End
					{
						OFFSET -0.000500 0.001200 19.917799
						CHANNELS 3 Xrotation Yrotation Zrotation
						End Site
						{
							OFFSET 0.000000 19.917805 0.000000
						}
					}
				}
			}
		}
	}
	JOINT mixamorig:RightUpLeg
	{
		OFFSET -18.162500 -13.585098 -0.041000
		CHANNELS 3 Xrotation Yrotation Zrotation
		JOINT mixamorig:RightLeg
		{
			OFFSET -0.595024 -80.945297 -3.631900
			CHANNELS 3 Xrotation Yrotation Zrotation
			JOINT mixamorig:RightFoot
			{
				OFFSET 0.595024 -83.218193 -6.561200
				CHANNELS 3 Xrotation Yrotation Zrotation
				JOINT mixamorig:RightToeBase
				{
					OFFSET -0.753601 -20.807106 25.115000
					CHANNELS 3 Xrotation Yrotation Zrotation
					JOINT mixamorig:RightToe_End
					{
						OFFSET 0.000299 0.001700 19.918200
						CHANNELS 3 Xrotation Yrotation Zrotation
						End Site
						{
							OFFSET 0.000000 19.918203 0.000000
						}
					}
				}
			}
		}
	}
}
MOTION
Frames: 4
Frame Time: 0.033333
0.804674 194.153427 -1.357681 -16.902498 -38.972708 -9.414207 7.991582 -0.058686 -0.116917 16.413452 -0.125521 -0.745992 16.413517 -0.192925 -0.721087 0.367411 7.480957 0.837549 -6.982143 21.597277 11.882997 -0.000000 0.000000 -0.000001 -0.000000 0.000000 -0.000001 -0.000000 0.000000 -0.000001 -37.571074 -4.822509 1.545824 -41.628412 -7.015808 -61.684374 -0.000098 -64.995868 -0.000073 -119.359605 1.120084 32.550250 0.405917 5.507042 -52.453141 3.387133 5.308623 -65.057477 0.282024 1.797452 -17.832371 -0.000002 0.000001 0.000003 4.709207 9.560381 3.111987 19.473192 -1.474901 7.636928 -4.536181 -9.613118 1.492971 0.000001 0.000002 -0.000000 -0.212824 3.933698 -36.747131 2.942139 5.078910 -60.144597 0.513670 2.400820 -24.150521 -0.000006 0.000000 -0.000002 -0.074366 5.736809 -61.061413 4.055030 5.569512 -72.094921 0.582672 2.548975 -25.748001 -0.000001 -0.000003 -0.000003 -6.565568 4.545146 -72.425222 3.299621 5.267212 -64.107800 0.175349 1.424019 -14.038907 0.000001 0.000000 0.000001 -41.176291 -8.605639 -9.942312 -46.819687 58.242970 100.948721 0.000620 98.442943 -0.000584 -52.463096 -17.216617 -29.273112 3.413056 -7.186267 51.650256 6.296830 -4.359609 110.634653 0.248734 -1.503066 18.790276 0.000001 -0.000000 -0.000000 8.377137 -4.904144 11.022006 21.620199 -18.183885 -18.379209 -0.702950 -49.821189 -32.535189 0.000000 0.000003 0.000002 -0.920033 1.683581 12.434976 0.748115 -2.533458 32.898296 0.615642 -2.316062 29.767832 0.000001 0.000000 -0.000003 -3.349028 -2.600435 57.010568 5.440854 -4.590905 99.698168 1.689408 -3.590679 50.382248 -0.000000 0.000001 -0.000001 -3.996445 -3.303950 64.593850 4.058848 -4.618661 82.610530 2.315547 -4.026783 59.787214 0.000000 -0.000000 0.000001 -22.548133 42.892229 28.633744 22.225430 0.658781 -0.619412 4.192121 1.194178 -2.605232 -0.000004 -0.000006 -0.000001 0.000000 0.000000 -0.000000 2.212051 5.283784 -5.402680 31.260099 -0.425901 1.069177 -18.945324 -17.326363 4.273036 -0.020493 -0.000000 -0.000003 -0.000000 -0.000000 0.000000 
1.901981 194.073273 1.503838 -16.320710 -37.941639 -7.730909 8.043955 -0.988724 -0.840441 16.346711 -0.392787 -0.791707 16.347438 -0.455490 -0.764023 0.422813 7.526363 0.799562 -6.906045 21.576568 11.639728 0.000000 -0.000000 0.000000 0.000000 -0.000000 0.000000 0.000000 -0.000000 0.000000 -37.531869 -4.786461 0.982549 -40.948435 -6.967741 -60.974881 -0.000002 -66.076186 -0.000017 -120.066215 0.877101 32.893546 0.405919 5.507039 -52.453145 3.387135 5.308614 -65.057477 0.282017 1.797452 -17.832371 0.000002 0.000003 -0.000000 4.709205 9.560384 3.111984 19.473190 -1.474894 7.636926 -4.536186 -9.613117 1.492974 0.000002 -0.000001 -0.000001 -0.212822 3.933701 -36.747125 2.942142 5.078906 -60.144597 0.513663 2.400817 -24.150518 -0.000000 0.000001 -0.000002 -0.074364 5.736815 -61.061420 4.055028 5.569513 -72.094928 0.582671 2.548974 -25.748001 -0.000000 -0.000001 0.000002 -6.565567 4.545145 -72.425222 3.299617 5.267216 -64.107794 0.175346 1.424022 -14.038897 -0.000001 0.000001 0.000004 -41.252451 -8.656656 -10.129869 -47.164034 58.329098 101.688942 -0.000148 99.007629 0.000160 -52.133345 -18.033378 -29.854555 3.413056 -7.186266 51.650256 6.296832 -4.359609 110.634660 0.248734 -1.503066 18.790276 0.000001 -0.000001 -0.000000 8.377137 -4.904144 11.022006 21.620194 -18.183886 -18.379211 -0.702950 -49.821189 -32.535186 -0.000002 0.000002 -0.000000 -0.920033 1.683580 12.434977 0.748115 -2.533455 32.898293 0.615641 -2.316062 29.767829 -0.000001 0.000000 -0.000003 -3.349026 -2.600434 57.010564 5.440854 -4.590906 99.698174 1.689410 -3.590678 50.382245 0.000000 -0.000000 -0.000001 -3.996444 -3.303949 64.593850 4.058849 -4.618663 82.610530 2.315546 -4.026781 59.787221 0.000000 -0.000000 0.000001 -20.281137 41.671052 24.823575 23.432987 0.790434 -0.284175 2.564766 2.295510 -2.592775 -0.192770 0.000008 0.000002 0.000000 -0.000001 -0.000000 -1.419155 5.814098 -6.601504 39.410724 -2.697616 0.346158 -15.004665 -19.632709 3.638702 -3.509231 -0.029003 1.650157 0.000000 0.000001 -0.000000 
2.811964 193.776520 4.197891 -16.070018 -37.086623 -6.553532 8.218540 -1.815186 -1.482220 16.343073 -0.624098 -0.771652 16.344235 -0.686283 -0.738040 0.420789 7.563164 0.789648 -6.667911 21.538390 11.300257 0.000000 -0.000001 -0.000003 0.000000 -0.000001 -0.000003 0.000000 -0.000001 -0.000003 -37.518233 -4.740368 0.794513 -40.628889 -6.659290 -60.423685 -0.000126 -66.826844 -0.000136 -120.551145 0.796920 33.158895 0.405919 5.507042 -52.453145 3.387133 5.308619 -65.057477 0.282025 1.797452 -17.832371 -0.000001 -0.000000 -0.000004 4.709208 9.560386 3.111985 19.473190 -1.474901 7.636927 -4.536192 -9.613119 1.492973 0.000004 -0.000000 0.000001 -0.212822 3.933700 -36.747131 2.942142 5.078903 -60.144590 0.513663 2.400818 -24.150519 -0.000001 0.000001 -0.000000 -0.074365 5.736818 -61.061413 4.055027 5.569513 -72.094921 0.582675 2.548975 -25.748001 0.000001 -0.000002 -0.000001 -6.565570 4.545144 -72.425222 3.299620 5.267217 -64.107800 0.175346 1.424022 -14.038902 -0.000003 -0.000007 0.000003 -41.317904 -8.687044 -10.288401 -48.211655 58.464391 102.686888 -0.000050 99.129862 0.000004 -52.073632 -18.397803 -30.258356 3.413056 -7.186266 51.650253 6.296832 -4.359608 110.634660 0.248733 -1.503064 18.790272 0.000000 -0.000000 0.000001 8.377139 -4.904143 11.022009 21.620190 -18.183885 -18.379211 -0.702947 -49.821186 -32.535189 0.000001 -0.000000 -0.000001 -0.920034 1.683581 12.434977 0.748116 -2.533456 32.898293 0.615643 -2.316062 29.767832 0.000001 0.000000 -0.000000 -3.349027 -2.600436 57.010564 5.440854 -4.590904 99.698168 1.689409 -3.590679 50.382248 -0.000001 -0.000000 -0.000001 -3.996445 -3.303948 64.593850 4.058849 -4.618662 82.610530 2.315547 -4.026781 59.787221 0.000001 -0.000001 -0.000002 -19.177112 41.326572 22.896285 25.093990 0.656205 -0.504882 0.774998 2.423880 -2.182919 -0.395141 -0.000011 0.000001 -0.000000 0.000001 0.000000 -5.466077 6.741145 -7.091801 48.831867 -2.954917 0.159371 -11.917760 -24.125318 1.011478 -4.432710 -0.111614 3.189543 0.000000 0.000001 -0.000001 
3.236127 193.558182 6.878124 -15.651435 -36.419081 -5.397145 8.307727 -2.824217 -2.506703 16.310056 -0.897604 -0.742895 16.312973 -0.957914 -0.702542 0.394042 7.667237 0.806137 -6.766688 21.937483 11.504797 0.000002 -0.000001 -0.000000 0.000002 -0.000001 -0.000000 0.000002 -0.000001 -0.000000 -37.528594 -4.691577 0.963730 -39.990624 -5.860579 -59.520720 -0.000131 -68.724851 -0.000129 -120.766077 0.425459 34.069397 0.405918 5.507046 -52.453145 3.387130 5.308619 -65.057477 0.282024 1.797454 -17.832379 0.000002 0.000001 -0.000000 4.709208 9.560389 3.111986 19.473185 -1.474899 7.636925 -4.536181 -9.613118 1.492970 0.000000 -0.000003 0.000002 -0.212824 3.933705 -36.747131 2.942140 5.078905 -60.144590 0.513666 2.400820 -24.150521 0.000001 0.000001 0.000001 -0.074367 5.736821 -61.061420 4.055028 5.569512 -72.094928 0.582672 2.548974 -25.748000 0.000000 0.000002 -0.000002 -6.565569 4.545152 -72.425222 3.299623 5.267212 -64.107794 0.175348 1.424023 -14.038895 -0.000001 -0.000001 0.000003 -41.305579 -8.510627 -10.229608 -49.104569 58.536948 103.689983 0.000324 99.470593 -0.000337 -51.937264 -18.446924 -30.428541 3.413057 -7.186265 51.650256 6.296832 -4.359609 110.634660 0.248734 -1.503066 18.790276 0.000000 -0.000000 -0.000001 8.377136 -4.904144 11.022005 21.620194 -18.183886 -18.379213 -0.702945 -49.821189 -32.535189 0.000000 -0.000001 -0.000001 -0.920032 1.683580 12.434973 0.748115 -2.533458 32.898296 0.615643 -2.316063 29.767836 0.000001 0.000001 -0.000001 -3.349028 -2.600434 57.010564 5.440855 -4.590905 99.698168 1.689409 -3.590679 50.382252 -0.000001 -0.000001 -0.000002 -3.996447 -3.303950 64.593850 4.058849 -4.618658 82.610523 2.315546 -4.026783 59.787221 0.000001 -0.000000 -0.000002 -18.452787 41.822495 21.947163 26.253009 0.415236 -1.287293 -0.744268 1.702697 -1.536867 -0.735126 0.000004 0.000001 0.000000 0.000000 0.000000 -8.929692 6.759291 -8.408515 56.485043 -0.813615 1.549299 -11.032513 -25.324690 -0.865001 -1.901432 -0.026618 1.566428 -0.000002 -0.000001 0.000001 
